# xmcd CD database file
#
# Track frame offsets:
#	150
#	14660
#	31810
#	47435
#	62085
#	78325
#	94077
#	109072
#	130277
#	149167
#	161377
#	178205
#	196055
#	216922
#	237487
#	255317
#
# Disc length: 3603 seconds
#
# Revision: 3
# Processed by: cddbd v1.5.2PL0 Copyright (c) Steve Scherf et al.
# Submitted via: CDex 1.70beta2
#
DISCID=de0e1110
DTITLE=Omnibus - ニューミュージックベスト Disc 1
DYEAR=1992
DGENRE=Folk
TTITLE0=22歳の別れ - 風
TTITLE1=海岸通 - イルカ
TTITLE2=雨の物語 - イルカ
TTITLE3=加茂の流れに - かぐや姫
TTITLE4=レイニー・ステイション - 鈴木 茂
TTITLE5=ソバカスのある少女 - ティン・パン・アレー
TTITLE6=好きだった人 - かぐや姫
TTITLE7=今日は雨 - 南こうせつ
TTITLE8=妹 - かぐや姫
TTITLE9=僕の胸でおやすみ - かぐや姫
TTITLE10=アビーロードの街 - かぐや姫
TTITLE11=ささやかなこの人生 - 風
TTITLE12=月にてらされ - ティン・パン・アレー
TTITLE13=Follow Me - イルカ
TTITLE14=あいつ - 風
TTITLE15=おまえだけが - 風
EXTD=YEAR: 1992
EXTT0=
EXTT1=
EXTT2=
EXTT3=
EXTT4=
EXTT5=
EXTT6=
EXTT7=
EXTT8=
EXTT9=
EXTT10=
EXTT11=
EXTT12=
EXTT13=
EXTT14=
EXTT15=
PLAYORDER=
